<svg width="279" height="105" viewBox="0 0 279 105" fill="none" xmlns="http://www.w3.org/2000/svg">
<path d="M1.4 49V0.999999H15.86L19.82 19.18L20.6 41.08H22.16L22.88 19.18L26.9 0.999999H41.3V49H32.3V34.24L34.04 8.92H32.42L29.9 34.84L26.18 49H16.52L12.86 34.84L10.28 8.92H8.72L10.4 34.24V49H1.4ZM58.3011 49.6C53.9011 49.6 50.7011 48.68 48.7011 46.84C46.7411 44.96 45.7211 41.86 45.6411 37.54C45.5611 33.62 45.5211 29.44 45.5211 25C45.5211 20.52 45.5611 16.32 45.6411 12.4C45.7211 8.12 46.7411 5.06 48.7011 3.22C50.7011 1.34 53.9011 0.399996 58.3011 0.399996C62.7011 0.399996 65.8611 1.34 67.7811 3.22C69.7011 5.06 70.7411 8.12 70.9011 12.4C71.0611 16.4 71.1411 20.62 71.1411 25.06C71.1411 29.46 71.0611 33.62 70.9011 37.54C70.7411 41.86 69.7011 44.96 67.7811 46.84C65.8611 48.68 62.7011 49.6 58.3011 49.6ZM58.3011 42.28C60.6211 42.28 61.8211 41.26 61.9011 39.22C61.9811 37.18 62.0411 34.94 62.0811 32.5C62.1611 30.06 62.2011 27.56 62.2011 25C62.2011 22.4 62.1611 19.88 62.0811 17.44C62.0411 15 61.9811 12.76 61.9011 10.72C61.8211 8.72 60.6211 7.72 58.3011 7.72C55.9411 7.72 54.7211 8.72 54.6411 10.72C54.5611 12.76 54.5011 15 54.4611 17.44C54.4211 19.88 54.4011 22.4 54.4011 25C54.4011 27.56 54.4211 30.06 54.4611 32.5C54.5011 34.94 54.5611 37.18 54.6411 39.22C54.7211 41.26 55.9411 42.28 58.3011 42.28ZM74.7594 49V0.999999H86.9394C91.4594 0.999999 94.7194 1.96 96.7194 3.88C98.7194 5.76 99.7594 8.9 99.8394 13.3C99.9194 16.06 99.9594 18.7 99.9594 21.22C99.9994 23.7 99.9994 26.2 99.9594 28.72C99.9594 31.2 99.9194 33.84 99.8394 36.64C99.7594 41.04 98.7194 44.2 96.7194 46.12C94.7194 48.04 91.4594 49 86.9394 49H74.7594ZM83.7594 41.08H86.9394C89.4594 41.08 90.7594 39.96 90.8394 37.72C91.0794 29.2 91.0794 20.7 90.8394 12.22C90.7594 10.02 89.4594 8.92 86.9394 8.92H83.7594V41.08ZM103.588 49V0.999999H124.348V8.92H112.588V20.62H123.748V28.54H112.588V41.08H124.348V49H103.588ZM127.377 49V0.999999H138.957C143.437 0.999999 146.657 1.92 148.617 3.76C150.617 5.56 151.697 8.54 151.857 12.7C151.897 13.82 151.917 14.8 151.917 15.64C151.957 16.48 151.957 17.32 151.917 18.16C151.917 19 151.897 19.98 151.857 21.1C151.777 23.7 151.337 25.84 150.537 27.52C149.737 29.16 148.517 30.42 146.877 31.3L152.517 49H142.977L138.417 32.8H136.377V49H127.377ZM136.377 24.88H138.957C141.437 24.88 142.737 23.78 142.857 21.58C143.057 18.46 143.057 15.34 142.857 12.22C142.737 10.02 141.437 8.92 138.957 8.92H136.377V24.88ZM156.088 49V0.999999H169.107L172.708 16.3L176.008 41.08H177.568L175.888 21.58L175.168 0.999999H183.868V49H170.188L166.588 33.28L164.128 8.86H162.448L164.008 30.58L164.788 49H156.088ZM0.2 104L6.86 56H21.02L27.68 104H18.44L17.42 93.98H10.46L9.44 104H0.2ZM11.3 86.06H16.58L15.5 75.44L14.78 63.92H13.1L12.38 75.44L11.3 86.06ZM30.1109 104V56H41.6909C46.1709 56 49.3909 56.92 51.3509 58.76C53.3509 60.56 54.4309 63.54 54.5909 67.7C54.6309 68.82 54.6509 69.8 54.6509 70.64C54.6909 71.48 54.6909 72.32 54.6509 73.16C54.6509 74 54.6309 74.98 54.5909 76.1C54.5109 78.7 54.0709 80.84 53.2709 82.52C52.4709 84.16 51.2509 85.42 49.6109 86.3L55.2509 104H45.7109L41.1509 87.8H39.1109V104H30.1109ZM39.1109 79.88H41.6909C44.1709 79.88 45.4709 78.78 45.5909 76.58C45.7909 73.46 45.7909 70.34 45.5909 67.22C45.4709 65.02 44.1709 63.92 41.6909 63.92H39.1109V79.88ZM64.19 104V63.92H56.45V56H80.87V63.92H73.19V104H64.19ZM110.51 104.6C107.51 104.6 105.09 104.2 103.25 103.4C101.45 102.56 100.13 101.26 99.2895 99.5C98.4495 97.74 97.9695 95.42 97.8495 92.54C97.8095 90.86 97.7695 88.96 97.7295 86.84C97.6895 84.68 97.6695 82.46 97.6695 80.18C97.6695 77.86 97.6895 75.64 97.7295 73.52C97.7695 71.4 97.8095 69.54 97.8495 67.94C97.9695 64.9 98.4495 62.46 99.2895 60.62C100.17 58.78 101.51 57.46 103.31 56.66C105.15 55.82 107.55 55.4 110.51 55.4C114.71 55.4 117.77 56.34 119.69 58.22C121.61 60.06 122.71 63.12 122.99 67.4C123.07 68.32 123.11 69.42 123.11 70.7C123.11 71.98 123.07 73.08 122.99 74H113.99C114.07 72.88 114.11 71.5 114.11 69.86C114.11 68.22 114.07 66.84 113.99 65.72C113.87 63.72 112.71 62.72 110.51 62.72C108.19 62.72 106.97 63.72 106.85 65.72C106.69 68.52 106.57 71.6 106.49 74.96C106.45 78.32 106.45 81.68 106.49 85.04C106.57 88.36 106.69 91.42 106.85 94.22C106.97 96.26 108.19 97.28 110.51 97.28C111.67 97.28 112.59 97.02 113.27 96.5C113.95 95.98 114.33 95.22 114.41 94.22C114.45 93.74 114.47 93.14 114.47 92.42C114.51 91.66 114.51 90.9 114.47 90.14C114.47 89.38 114.45 88.78 114.41 88.34H111.11V80.54H123.17C123.25 82.38 123.27 84.38 123.23 86.54C123.23 88.7 123.19 90.7 123.11 92.54C122.91 96.86 121.83 99.96 119.87 101.84C117.91 103.68 114.79 104.6 110.51 104.6ZM124.536 104L131.196 56H145.356L152.016 104H142.776L141.756 93.98H134.796L133.776 104H124.536ZM135.636 86.06H140.916L139.836 75.44L139.116 63.92H137.436L136.716 75.44L135.636 86.06ZM154.447 104V56H163.447V96.08H175.267V104H154.447ZM178.295 104V56H187.295V96.08H199.115V104H178.295ZM202.142 104V56H222.902V63.92H211.142V75.62H222.302V83.54H211.142V96.08H222.902V104H202.142ZM225.931 104V56H237.511C241.991 56 245.211 56.92 247.171 58.76C249.171 60.56 250.251 63.54 250.411 67.7C250.451 68.82 250.471 69.8 250.471 70.64C250.511 71.48 250.511 72.32 250.471 73.16C250.471 74 250.451 74.98 250.411 76.1C250.331 78.7 249.891 80.84 249.091 82.52C248.291 84.16 247.071 85.42 245.431 86.3L251.071 104H241.531L236.971 87.8H234.931V104H225.931ZM234.931 79.88H237.511C239.991 79.88 241.291 78.78 241.411 76.58C241.611 73.46 241.611 70.34 241.411 67.22C241.291 65.02 239.991 63.92 237.511 63.92H234.931V79.88ZM260.04 104V92.54L259.38 89.84L251.04 56H260.22L262.8 67.64L263.7 81.74H265.38L266.28 67.64L268.86 56H278.04L269.7 89.78L269.04 92.54V104H260.04Z" fill="#151515"/>
</svg>
