<svg width="325" height="123" viewBox="0 0 325 123" fill="none" xmlns="http://www.w3.org/2000/svg">
<path d="M1.8 57V0.999999H18.67L23.29 22.21L24.2 47.76H26.02L26.86 22.21L31.55 0.999999H48.35V57H37.85V39.78L39.88 10.24H37.99L35.05 40.48L30.71 57H19.44L15.17 40.48L12.16 10.24H10.34L12.3 39.78V57H1.8ZM68.1846 57.7C63.0513 57.7 59.3179 56.6267 56.9846 54.48C54.6979 52.2867 53.5079 48.67 53.4146 43.63C53.3213 39.0567 53.2746 34.18 53.2746 29C53.2746 23.7733 53.3213 18.8733 53.4146 14.3C53.5079 9.30667 54.6979 5.73667 56.9846 3.59C59.3179 1.39666 63.0513 0.299996 68.1846 0.299996C73.3179 0.299996 77.0046 1.39666 79.2446 3.59C81.4846 5.73667 82.6979 9.30667 82.8846 14.3C83.0713 18.9667 83.1646 23.89 83.1646 29.07C83.1646 34.2033 83.0713 39.0567 82.8846 43.63C82.6979 48.67 81.4846 52.2867 79.2446 54.48C77.0046 56.6267 73.3179 57.7 68.1846 57.7ZM68.1846 49.16C70.8913 49.16 72.2913 47.97 72.3846 45.59C72.4779 43.21 72.5479 40.5967 72.5946 37.75C72.6879 34.9033 72.7346 31.9867 72.7346 29C72.7346 25.9667 72.6879 23.0267 72.5946 20.18C72.5479 17.3333 72.4779 14.72 72.3846 12.34C72.2913 10.0067 70.8913 8.84 68.1846 8.84C65.4313 8.84 64.0079 10.0067 63.9146 12.34C63.8213 14.72 63.7513 17.3333 63.7046 20.18C63.6579 23.0267 63.6346 25.9667 63.6346 29C63.6346 31.9867 63.6579 34.9033 63.7046 37.75C63.7513 40.5967 63.8213 43.21 63.9146 45.59C64.0079 47.97 65.4313 49.16 68.1846 49.16ZM87.3859 57V0.999999H101.596C106.869 0.999999 110.673 2.12 113.006 4.36C115.339 6.55333 116.553 10.2167 116.646 15.35C116.739 18.57 116.786 21.65 116.786 24.59C116.833 27.4833 116.833 30.4 116.786 33.34C116.786 36.2333 116.739 39.3133 116.646 42.58C116.553 47.7133 115.339 51.4 113.006 53.64C110.673 55.88 106.869 57 101.596 57H87.3859ZM97.8859 47.76H101.596C104.536 47.76 106.053 46.4533 106.146 43.84C106.426 33.9 106.426 23.9833 106.146 14.09C106.053 11.5233 104.536 10.24 101.596 10.24H97.8859V47.76ZM121.019 57V0.999999H145.239V10.24H131.519V23.89H144.539V33.13H131.519V47.76H145.239V57H121.019ZM148.773 57V0.999999H162.283C167.509 0.999999 171.266 2.07333 173.553 4.22C175.886 6.32 177.146 9.79666 177.333 14.65C177.379 15.9567 177.403 17.1 177.403 18.08C177.449 19.06 177.449 20.04 177.403 21.02C177.403 22 177.379 23.1433 177.333 24.45C177.239 27.4833 176.726 29.98 175.793 31.94C174.859 33.8533 173.436 35.3233 171.523 36.35L178.103 57H166.973L161.653 38.1H159.273V57H148.773ZM159.273 28.86H162.283C165.176 28.86 166.693 27.5767 166.833 25.01C167.066 21.37 167.066 17.73 166.833 14.09C166.693 11.5233 165.176 10.24 162.283 10.24H159.273V28.86ZM182.269 57V0.999999H197.459L201.659 18.85L205.509 47.76H207.329L205.369 25.01L204.529 0.999999H214.679V57H198.719L194.519 38.66L191.649 10.17H189.689L191.509 35.51L192.419 57H182.269ZM0.4 122L8.17 66H24.69L32.46 122H21.68L20.49 110.31H12.37L11.18 122H0.4ZM13.35 101.07H19.51L18.25 88.68L17.41 75.24H15.45L14.61 88.68L13.35 101.07ZM35.2961 122V66H48.8061C54.0328 66 57.7894 67.0733 60.0761 69.22C62.4094 71.32 63.6694 74.7967 63.8561 79.65C63.9028 80.9567 63.9261 82.1 63.9261 83.08C63.9728 84.06 63.9728 85.04 63.9261 86.02C63.9261 87 63.9028 88.1433 63.8561 89.45C63.7628 92.4833 63.2494 94.98 62.3161 96.94C61.3828 98.8533 59.9594 100.323 58.0461 101.35L64.6261 122H53.4961L48.1761 103.1H45.7961V122H35.2961ZM45.7961 93.86H48.8061C51.6994 93.86 53.2161 92.5767 53.3561 90.01C53.5894 86.37 53.5894 82.73 53.3561 79.09C53.2161 76.5233 51.6994 75.24 48.8061 75.24H45.7961V93.86ZM75.055 122V75.24H66.025V66H94.515V75.24H85.555V122H75.055ZM129.094 122.7C125.594 122.7 122.771 122.233 120.624 121.3C118.524 120.32 116.984 118.803 116.004 116.75C115.024 114.697 114.464 111.99 114.324 108.63C114.278 106.67 114.231 104.453 114.184 101.98C114.138 99.46 114.114 96.87 114.114 94.21C114.114 91.5033 114.138 88.9133 114.184 86.44C114.231 83.9667 114.278 81.7967 114.324 79.93C114.464 76.3833 115.024 73.5367 116.004 71.39C117.031 69.2433 118.594 67.7033 120.694 66.77C122.841 65.79 125.641 65.3 129.094 65.3C133.994 65.3 137.564 66.3967 139.804 68.59C142.044 70.7367 143.328 74.3067 143.654 79.3C143.748 80.3733 143.794 81.6567 143.794 83.15C143.794 84.6433 143.748 85.9267 143.654 87H133.154C133.248 85.6933 133.294 84.0833 133.294 82.17C133.294 80.2567 133.248 78.6467 133.154 77.34C133.014 75.0067 131.661 73.84 129.094 73.84C126.388 73.84 124.964 75.0067 124.824 77.34C124.638 80.6067 124.498 84.2 124.404 88.12C124.358 92.04 124.358 95.96 124.404 99.88C124.498 103.753 124.638 107.323 124.824 110.59C124.964 112.97 126.388 114.16 129.094 114.16C130.448 114.16 131.521 113.857 132.314 113.25C133.108 112.643 133.551 111.757 133.644 110.59C133.691 110.03 133.714 109.33 133.714 108.49C133.761 107.603 133.761 106.717 133.714 105.83C133.714 104.943 133.691 104.243 133.644 103.73H129.794V94.63H143.864C143.958 96.7767 143.981 99.11 143.934 101.63C143.934 104.15 143.888 106.483 143.794 108.63C143.561 113.67 142.301 117.287 140.014 119.48C137.728 121.627 134.088 122.7 129.094 122.7ZM145.459 122L153.229 66H169.749L177.519 122H166.739L165.549 110.31H157.429L156.239 122H145.459ZM158.409 101.07H164.569L163.309 88.68L162.469 75.24H160.509L159.669 88.68L158.409 101.07ZM180.355 122V66H190.855V112.76H204.645V122H180.355ZM208.177 122V66H218.677V112.76H232.467V122H208.177ZM235.999 122V66H260.219V75.24H246.499V88.89H259.519V98.13H246.499V112.76H260.219V122H235.999ZM263.753 122V66H277.263C282.49 66 286.246 67.0733 288.533 69.22C290.866 71.32 292.126 74.7967 292.313 79.65C292.36 80.9567 292.383 82.1 292.383 83.08C292.43 84.06 292.43 85.04 292.383 86.02C292.383 87 292.36 88.1433 292.313 89.45C292.22 92.4833 291.706 94.98 290.773 96.94C289.84 98.8533 288.416 100.323 286.503 101.35L293.083 122H281.953L276.633 103.1H274.253V122H263.753ZM274.253 93.86H277.263C280.156 93.86 281.673 92.5767 281.813 90.01C282.046 86.37 282.046 82.73 281.813 79.09C281.673 76.5233 280.156 75.24 277.263 75.24H274.253V93.86ZM303.546 122V108.63L302.776 105.48L293.046 66H303.756L306.766 79.58L307.816 96.03H309.776L310.826 79.58L313.836 66H324.546L314.816 105.41L314.046 108.63V122H303.546Z" fill="#151515"/>
</svg>
