<svg width="284" height="167" viewBox="0 0 284 167" fill="none" xmlns="http://www.w3.org/2000/svg">
<path d="M2.84 78V1.2H25.976L32.312 30.288L33.56 65.328H36.056L37.208 30.288L43.64 1.2H66.68V78H52.28V54.384L55.064 13.872H52.472L48.44 55.344L42.488 78H27.032L21.176 55.344L17.048 13.872H14.552L17.24 54.384V78H2.84ZM93.8818 78.96C86.8418 78.96 81.7218 77.488 78.5218 74.544C75.3858 71.536 73.7538 66.576 73.6258 59.664C73.4978 53.392 73.4338 46.704 73.4338 39.6C73.4338 32.432 73.4978 25.712 73.6258 19.44C73.7538 12.592 75.3858 7.696 78.5218 4.752C81.7218 1.744 86.8418 0.239994 93.8818 0.239994C100.922 0.239994 105.978 1.744 109.05 4.752C112.122 7.696 113.786 12.592 114.042 19.44C114.298 25.84 114.426 32.592 114.426 39.696C114.426 46.736 114.298 53.392 114.042 59.664C113.786 66.576 112.122 71.536 109.05 74.544C105.978 77.488 100.922 78.96 93.8818 78.96ZM93.8818 67.248C97.5938 67.248 99.5138 65.616 99.6418 62.352C99.7698 59.088 99.8658 55.504 99.9298 51.6C100.058 47.696 100.122 43.696 100.122 39.6C100.122 35.44 100.058 31.408 99.9298 27.504C99.8658 23.6 99.7698 20.016 99.6418 16.752C99.5138 13.552 97.5938 11.952 93.8818 11.952C90.1058 11.952 88.1538 13.552 88.0258 16.752C87.8978 20.016 87.8018 23.6 87.7378 27.504C87.6738 31.408 87.6418 35.44 87.6418 39.6C87.6418 43.696 87.6738 47.696 87.7378 51.6C87.8018 55.504 87.8978 59.088 88.0258 62.352C88.1538 65.616 90.1058 67.248 93.8818 67.248ZM120.215 78V1.2H139.703C146.935 1.2 152.151 2.736 155.351 5.808C158.551 8.816 160.215 13.84 160.343 20.88C160.471 25.296 160.535 29.52 160.535 33.552C160.599 37.52 160.599 41.52 160.535 45.552C160.535 49.52 160.471 53.744 160.343 58.224C160.215 65.264 158.551 70.32 155.351 73.392C152.151 76.464 146.935 78 139.703 78H120.215ZM134.615 65.328H139.703C143.735 65.328 145.815 63.536 145.943 59.952C146.327 46.32 146.327 32.72 145.943 19.152C145.815 15.632 143.735 13.872 139.703 13.872H134.615V65.328ZM166.34 78V1.2H199.556V13.872H180.74V32.592H198.596V45.264H180.74V65.328H199.556V78H166.34ZM204.403 78V1.2H222.931C230.099 1.2 235.251 2.672 238.387 5.616C241.587 8.496 243.315 13.264 243.571 19.92C243.635 21.712 243.667 23.28 243.667 24.624C243.731 25.968 243.731 27.312 243.667 28.656C243.667 30 243.635 31.568 243.571 33.36C243.443 37.52 242.739 40.944 241.459 43.632C240.179 46.256 238.227 48.272 235.603 49.68L244.627 78H229.363L222.067 52.08H218.803V78H204.403ZM218.803 39.408H222.931C226.899 39.408 228.979 37.648 229.171 34.128C229.491 29.136 229.491 24.144 229.171 19.152C228.979 15.632 226.899 13.872 222.931 13.872H218.803V39.408ZM250.34 78V1.2H271.172L276.932 25.68L282.212 65.328H284.708L282.02 34.128L280.868 1.2H294.788V78H272.9L267.14 52.848L263.204 13.776H260.516L263.012 48.528L264.26 78H250.34ZM0.92 166L11.576 89.2H34.232L44.888 166H30.104L28.472 149.968H17.336L15.704 166H0.92ZM18.68 137.296H27.128L25.4 120.304L24.248 101.872H21.56L20.408 120.304L18.68 137.296ZM48.7775 166V89.2H67.3055C74.4735 89.2 79.6255 90.672 82.7615 93.616C85.9615 96.496 87.6895 101.264 87.9455 107.92C88.0095 109.712 88.0415 111.28 88.0415 112.624C88.1055 113.968 88.1055 115.312 88.0415 116.656C88.0415 118 88.0095 119.568 87.9455 121.36C87.8175 125.52 87.1135 128.944 85.8335 131.632C84.5535 134.256 82.6015 136.272 79.9775 137.68L89.0015 166H73.7375L66.4415 140.08H63.1775V166H48.7775ZM63.1775 127.408H67.3055C71.2735 127.408 73.3535 125.648 73.5455 122.128C73.8655 117.136 73.8655 112.144 73.5455 107.152C73.3535 103.632 71.2735 101.872 67.3055 101.872H63.1775V127.408ZM103.304 166V101.872H90.92V89.2H129.992V101.872H117.704V166H103.304ZM177.415 166.96C172.615 166.96 168.743 166.32 165.799 165.04C162.919 163.696 160.807 161.616 159.463 158.8C158.119 155.984 157.351 152.272 157.159 147.664C157.095 144.976 157.031 141.936 156.967 138.544C156.903 135.088 156.871 131.536 156.871 127.888C156.871 124.176 156.903 120.624 156.967 117.232C157.031 113.84 157.095 110.864 157.159 108.304C157.351 103.44 158.119 99.536 159.463 96.592C160.871 93.648 163.015 91.536 165.895 90.256C168.839 88.912 172.679 88.24 177.415 88.24C184.135 88.24 189.031 89.744 192.103 92.752C195.175 95.696 196.935 100.592 197.383 107.44C197.511 108.912 197.575 110.672 197.575 112.72C197.575 114.768 197.511 116.528 197.383 118H182.983C183.111 116.208 183.175 114 183.175 111.376C183.175 108.752 183.111 106.544 182.983 104.752C182.791 101.552 180.935 99.952 177.415 99.952C173.703 99.952 171.751 101.552 171.559 104.752C171.303 109.232 171.111 114.16 170.983 119.536C170.919 124.912 170.919 130.288 170.983 135.664C171.111 140.976 171.303 145.872 171.559 150.352C171.751 153.616 173.703 155.248 177.415 155.248C179.271 155.248 180.743 154.832 181.831 154C182.919 153.168 183.527 151.952 183.655 150.352C183.719 149.584 183.751 148.624 183.751 147.472C183.815 146.256 183.815 145.04 183.751 143.824C183.751 142.608 183.719 141.648 183.655 140.944H178.375V128.464H197.671C197.799 131.408 197.831 134.608 197.767 138.064C197.767 141.52 197.703 144.72 197.575 147.664C197.255 154.576 195.527 159.536 192.391 162.544C189.255 165.488 184.263 166.96 177.415 166.96ZM199.858 166L210.514 89.2H233.17L243.826 166H229.042L227.41 149.968H216.274L214.642 166H199.858ZM217.618 137.296H226.066L224.338 120.304L223.186 101.872H220.498L219.346 120.304L217.618 137.296ZM247.715 166V89.2H262.115V153.328H281.027V166H247.715ZM285.871 166V89.2H300.271V153.328H319.183V166H285.871ZM324.028 166V89.2H357.244V101.872H338.428V120.592H356.284V133.264H338.428V153.328H357.244V166H324.028ZM362.09 166V89.2H380.618C387.786 89.2 392.938 90.672 396.074 93.616C399.274 96.496 401.002 101.264 401.258 107.92C401.322 109.712 401.354 111.28 401.354 112.624C401.418 113.968 401.418 115.312 401.354 116.656C401.354 118 401.322 119.568 401.258 121.36C401.13 125.52 400.426 128.944 399.146 131.632C397.866 134.256 395.914 136.272 393.29 137.68L402.314 166H387.05L379.754 140.08H376.49V166H362.09ZM376.49 127.408H380.618C384.586 127.408 386.666 125.648 386.858 122.128C387.178 117.136 387.178 112.144 386.858 107.152C386.666 103.632 384.586 101.872 380.618 101.872H376.49V127.408ZM416.664 166V147.664L415.608 143.344L402.264 89.2H416.952L421.08 107.824L422.52 130.384H425.208L426.648 107.824L430.776 89.2H445.464L432.12 143.248L431.064 147.664V166H416.664Z" fill="white"/>
</svg>
